<?xml version="1.0" encoding="UTF-8"?>
<svg width="200" height="200" viewBox="0 0 200 200" xmlns="http://www.w3.org/2000/svg">
  <circle cx="100" cy="100" r="100" fill="#FFFFFF"/>
  <g transform="translate(50, 50)">
    <path d="M50,0 C77.6142,0 100,22.3858 100,50 C100,77.6142 77.6142,100 50,100 C22.3858,100 0,77.6142 0,50 C0,22.3858 22.3858,0 50,0 Z" fill="#7D1935"/>
    <path d="M30,30 L70,30 L70,60 C70,65.5228 65.5228,70 60,70 L40,70 C34.4772,70 30,65.5228 30,60 L30,30 Z" fill="#4A0D1C"/>
    <rect x="35" y="40" width="30" height="5" fill="#FFFFFF"/>
    <rect x="35" y="50" width="30" height="5" fill="#FFFFFF"/>
    <path d="M40,20 L60,20 L65,30 L35,30 L40,20 Z" fill="#4A0D1C"/>
    <circle cx="50" cy="15" r="5" fill="#4A0D1C"/>
  </g>
  <text x="100" y="160" text-anchor="middle" font-family="Arial" font-size="14" font-weight="bold" fill="#7D1935">Psalm cakes</text>
  <text x="100" y="175" text-anchor="middle" font-family="Arial" font-size="10" fill="#7D1935">Customized cakes</text>
</svg>
